<svg width="25" height="25" viewBox="0 0 25 25" fill="none" xmlns="http://www.w3.org/2000/svg">
<g clip-path="url(#clip0_767_2581)">
<path d="M12.72 16.1868C14.4239 16.1868 15.8052 14.8055 15.8052 13.1016C15.8052 11.3977 14.4239 10.0164 12.72 10.0164C11.0161 10.0164 9.63477 11.3977 9.63477 13.1016C9.63477 14.8055 11.0161 16.1868 12.72 16.1868Z" fill="url(#paint0_linear_767_2581)"/>
<path d="M16.2478 22.774H9.19246C8.62238 22.774 8.07565 22.5475 7.67254 22.1444C7.26943 21.7413 7.04297 21.1946 7.04297 20.6245V20.0145C7.04297 19.7301 7.09948 19.4485 7.20921 19.186C7.31894 18.9236 7.47972 18.6856 7.68219 18.4859L8.01134 18.1611C8.70256 17.4792 9.63452 17.0968 10.6055 17.0968H14.8347C15.8057 17.0968 16.7377 17.4792 17.4289 18.1611L17.7581 18.4859C17.9606 18.6856 18.1213 18.9236 18.2311 19.186C18.3408 19.4485 18.3973 19.7301 18.3973 20.0145V20.6245C18.3973 21.1946 18.1708 21.7413 17.7677 22.1444C17.3646 22.5475 16.8179 22.774 16.2478 22.774Z" fill="url(#paint1_linear_767_2581)"/>
<path d="M19.5011 16.0168C18.0633 16.0168 16.8978 14.8512 16.8978 13.4134C16.8978 11.9756 18.0633 10.8101 19.5011 10.8101C20.9389 10.8101 22.1045 11.9756 22.1045 13.4134C22.1045 14.8512 20.9389 16.0168 19.5011 16.0168Z" fill="url(#paint2_linear_767_2581)"/>
<path fill-rule="evenodd" clip-rule="evenodd" d="M19.2131 21.5752H22.4795C22.9605 21.5752 23.4219 21.3841 23.762 21.0439C24.1022 20.7038 24.2933 20.2424 24.2933 19.7614V19.2467C24.2933 19.0067 24.2456 18.7691 24.153 18.5476C24.0604 18.3262 23.9247 18.1254 23.7539 17.9568L23.4761 17.6828C22.8929 17.1073 22.1064 16.7847 21.2871 16.7847H17.7184C17.559 16.7847 17.4008 16.7969 17.2451 16.8208C17.6298 17.0208 17.986 17.2785 18.3003 17.5886L18.6903 17.9734C18.9302 18.2101 19.1207 18.4921 19.2507 18.803C19.3808 19.114 19.4477 19.4477 19.4477 19.7847V20.5075C19.4477 20.8797 19.3662 21.2436 19.2131 21.5752Z" fill="url(#paint3_linear_767_2581)"/>
<path d="M5.94418 16.0168C7.38198 16.0168 8.54755 14.8512 8.54755 13.4134C8.54755 11.9756 7.38198 10.8101 5.94418 10.8101C4.50639 10.8101 3.34082 11.9756 3.34082 13.4134C3.34082 14.8512 4.50639 16.0168 5.94418 16.0168Z" fill="url(#paint4_linear_767_2581)"/>
<path fill-rule="evenodd" clip-rule="evenodd" d="M6.23218 21.5752H2.96584C2.4848 21.5752 2.02345 21.3841 1.6833 21.0439C1.34315 20.7038 1.15206 20.2424 1.15206 19.7614V19.2467C1.15206 19.0067 1.19974 18.7691 1.29234 18.5476C1.38493 18.3262 1.52059 18.1254 1.69145 17.9568L1.96919 17.6828C2.55245 17.1073 3.33886 16.7847 4.15822 16.7847H7.72692C7.88635 16.7847 8.04452 16.7969 8.2002 16.8208C7.81549 17.0208 7.45928 17.2785 7.14506 17.5886L6.75504 17.9734C6.51511 18.2101 6.32461 18.4921 6.19458 18.803C6.06455 19.114 5.99759 19.4477 5.99759 19.7847V20.5075C5.99759 20.8797 6.07908 21.2436 6.23218 21.5752Z" fill="url(#paint5_linear_767_2581)"/>
<path fill-rule="evenodd" clip-rule="evenodd" d="M8.30957 2.89856C7.61921 2.89856 7.05957 3.4582 7.05957 4.14856V8.82703C7.05957 9.24124 6.72378 9.57703 6.30957 9.57703C5.89536 9.57703 5.55957 9.24124 5.55957 8.82703V4.14856C5.55957 2.62978 6.79079 1.39856 8.30957 1.39856H17.1335C18.6522 1.39856 19.8835 2.62978 19.8835 4.14856V8.82703C19.8835 9.24124 19.5477 9.57703 19.1335 9.57703C18.7192 9.57703 18.3835 9.24124 18.3835 8.82703V4.14856C18.3835 3.4582 17.8238 2.89856 17.1335 2.89856H8.30957Z" fill="#FCFCFC"/>
</g>
<defs>
<linearGradient id="paint0_linear_767_2581" x1="10.6931" y1="11.1905" x2="15.3114" y2="16.1868" gradientUnits="userSpaceOnUse">
<stop stop-color="#59CEFF"/>
<stop offset="1" stop-color="#0A85DD"/>
</linearGradient>
<linearGradient id="paint1_linear_767_2581" x1="9.32117" y1="17.0777" x2="16.6969" y2="22.4373" gradientUnits="userSpaceOnUse">
<stop stop-color="#25AFFE"/>
<stop offset="1" stop-color="#0A84DC"/>
</linearGradient>
<linearGradient id="paint2_linear_767_2581" x1="21.0818" y1="11.8444" x2="17.9995" y2="15.1612" gradientUnits="userSpaceOnUse">
<stop stop-color="#23A7FD"/>
<stop offset="1" stop-color="#197BF3"/>
</linearGradient>
<linearGradient id="paint3_linear_767_2581" x1="23.5275" y1="16.3004" x2="19.9092" y2="21.2924" gradientUnits="userSpaceOnUse">
<stop stop-color="#26B3FF"/>
<stop offset="1" stop-color="#197BF3"/>
</linearGradient>
<linearGradient id="paint4_linear_767_2581" x1="4.36352" y1="11.8444" x2="7.44582" y2="15.1612" gradientUnits="userSpaceOnUse">
<stop stop-color="#23A7FD"/>
<stop offset="1" stop-color="#197BF3"/>
</linearGradient>
<linearGradient id="paint5_linear_767_2581" x1="1.91779" y1="16.3004" x2="5.53613" y2="21.2924" gradientUnits="userSpaceOnUse">
<stop stop-color="#26B3FF"/>
<stop offset="1" stop-color="#197BF3"/>
</linearGradient>
<clipPath id="clip0_767_2581">
<rect width="24" height="24" fill="white" transform="translate(0.72168 0.0861816)"/>
</clipPath>
</defs>
</svg>
